<svg xmlns:xlink="http://www.w3.org/1999/xlink" xmlns="http://www.w3.org/2000/svg" fill="none" viewBox="0 0 169 34" width="169"  height="34" >
  <g fill="#1E3F6F" fill-rule="evenodd" clip-rule="evenodd">
    <path d="M43.636 24.617c-3.697 0-6.429-2.896-6.429-6.453 0-3.557 2.732-6.524 6.452-6.524 2.356 0 3.816.872 4.97 2.144l-1.766 1.907c-.872-.918-1.79-1.554-3.227-1.554-2.073 0-3.58 1.79-3.58 3.98 0 2.237 1.531 4.027 3.721 4.027 1.343 0 2.332-.636 3.227-1.554l1.719 1.695c-1.224 1.366-2.661 2.332-5.087 2.332ZM54.131 24.616h-2.849V11.663h2.85v3.038c.776-1.86 2.213-3.133 4.403-3.038v3.015h-.165c-2.496 0-4.239 1.625-4.239 4.922v5.016ZM73.452 11.64l-6.297 16.464h-2.889l1.376-3.483-5.395-12.981h3.038l3.681 9.588L70.5 11.64h2.952ZM81.86 14.113c-1.932 0-3.628 1.578-3.628 4.004 0 2.426 1.696 4.003 3.627 4.003 1.955 0 3.556-1.53 3.556-4.003 0-2.45-1.625-4.004-3.556-4.004Zm.658 10.48c-2.048 0-3.344-1.036-4.216-2.19v5.7h-2.849V11.64h2.85v2.33c.918-1.294 2.214-2.33 4.215-2.33 2.944 0 5.794 2.33 5.794 6.477 0 4.145-2.826 6.476-5.794 6.476ZM94.559 14.348v6.098c0 1.106.562 1.553 1.53 1.553h1.118v2.545h-1.95c-2.073-.006-3.547-.928-3.547-3.65v-6.546h-1.582v-2.447h1.582V8.485h2.849v3.416h2.648v2.447h-2.648ZM106.22 14.136c-2.285 0-3.745 1.79-3.745 3.98 0 2.214 1.578 4.027 3.792 4.027 2.307 0 3.768-1.79 3.768-3.98 0-2.214-1.578-4.027-3.815-4.027Zm0 10.48c-3.792 0-6.594-2.896-6.594-6.453 0-3.58 2.825-6.524 6.641-6.524 3.815 0 6.618 2.897 6.618 6.477 0 3.557-2.827 6.5-6.665 6.5ZM118.101 22.003v1.436a.16.16 0 0 1-.083.144l-1.243.718a.162.162 0 0 1-.165 0l-1.246-.718a.165.165 0 0 1-.083-.144v-1.436c0-.058.033-.113.083-.144l1.246-.718a.162.162 0 0 1 .165 0l1.243.718a.166.166 0 0 1 .083.144ZM140.13 14.136c-2.285 0-3.745 1.79-3.745 3.98 0 2.214 1.578 4.027 3.792 4.027 2.307 0 3.767-1.79 3.767-3.98 0-2.214-1.577-4.027-3.814-4.027Zm0 10.48c-3.792 0-6.595-2.896-6.595-6.453 0-3.58 2.826-6.524 6.642-6.524 3.815 0 6.618 2.897 6.618 6.477 0 3.557-2.827 6.5-6.665 6.5ZM126.777 24.602c-3.697-.07-6.373-3.02-6.304-6.576.068-3.555 2.856-6.469 6.576-6.398 2.355.045 3.798.944 4.928 2.238l-1.803 1.873c-.853-.935-1.759-1.588-3.196-1.616-2.072-.04-3.614 1.721-3.656 3.911-.043 2.237 1.454 4.056 3.643 4.098 1.343.026 2.344-.59 3.256-1.492l1.687 1.728c-1.25 1.342-2.705 2.28-5.131 2.234ZM163.734 11.64c2.709 0 4.357 1.719 4.357 4.757v8.22h-2.849v-7.348c0-1.978-.919-3.038-2.52-3.038-1.554 0-2.662 1.083-2.662 3.085v7.3h-2.849v-7.371c0-1.931-.943-3.014-2.521-3.014-1.577 0-2.661 1.178-2.661 3.109v7.277h-2.85V11.64h2.85v2.144c.801-1.107 1.885-2.144 3.792-2.144 1.79 0 3.038.872 3.697 2.19 1.014-1.318 2.332-2.19 4.216-2.19Z"/>
  </g>
  <path fill="#1E3F6F" fill-rule="evenodd" d="M19.494 26.978h-1.983l-2.375-2.187v-1.112l2.463-2.363v-3.729l3.223-2.097 3.677 2.767-5.005 8.721Zm-8.226-5.89.367-3.514-1.201-3.134h7.127l-1.174 3.134.34 3.501-2.742.013h-2.717Zm1.618 3.703-2.376 2.212H8.501l-5.029-8.746 3.689-2.742 3.261 2.072v3.729l2.464 2.363v1.112ZM8.464 7.982H19.47l1.327 5.611H7.186l1.278-5.611ZM13.985 1 0 9.074v16.149l13.985 8.075 13.986-8.075V9.074L13.985 1Z" clip-rule="evenodd"/>
  <path fill="url(#a)" fill-rule="evenodd" d="M0 9.074 13.985 1v6.982H8.464l-1.277 5.611h6.798v.847h-3.55l1.2 3.134-.366 3.514h2.716v12.21L0 25.223V9.074Zm12.886 15.717v-1.112l-2.464-2.363v-3.729l-3.261-2.072-3.689 2.742 5.029 8.746h2.009l2.376-2.212Z" clip-rule="evenodd"/>
  <mask id="b" width="14" height="33" x="0" y="1" maskUnits="userSpaceOnUse" style="mask-type:alpha">
    <path fill="#fff" fill-rule="evenodd" d="M0 9.074 13.985 1v6.982H8.464l-1.277 5.611h6.798v.847h-3.55l1.2 3.134-.366 3.514h2.716v12.21L0 25.223V9.074Zm12.886 15.717v-1.112l-2.464-2.363v-3.729l-3.261-2.072-3.689 2.742 5.029 8.746h2.009l2.376-2.212Z" clip-rule="evenodd"/>
  </mask>
  <path fill="url(#c)" fill-rule="evenodd" d="m19.494 26.978 5.006-8.721-3.678-2.767-3.222 2.097v3.729l-2.464 2.363v1.112l2.375 2.187h1.983ZM13.984 1l13.987 8.074v16.149l-13.986 8.075v-12.21l2.743-.013-.341-3.501 1.175-3.134h-3.577v-.847h6.812L19.47 7.982h-5.485V1Z" clip-rule="evenodd"/>
  <mask id="d" width="15" height="33" x="13" y="1" maskUnits="userSpaceOnUse" style="mask-type:alpha">
    <path fill="#fff" fill-rule="evenodd" d="m19.494 26.978 5.006-8.721-3.678-2.767-3.222 2.097v3.729l-2.464 2.363v1.112l2.375 2.187h1.983ZM13.984 1l13.987 8.074v16.149l-13.986 8.075v-12.21l2.743-.013-.341-3.501 1.175-3.134h-3.577v-.847h6.812L19.47 7.982h-5.485V1Z" clip-rule="evenodd"/>
  </mask>
  <defs>
    <linearGradient id="a" x1="3.496" x2="3.496" y1="1" y2="17.149" gradientUnits="userSpaceOnUse">
      <stop stop-color="#021E3F"/>
      <stop stop-color="#022045"/>
      <stop offset="1" stop-color="#002A67"/>
    </linearGradient>
    <linearGradient id="c" x1="24.282" x2="24.282" y1="32.411" y2="17.149" gradientUnits="userSpaceOnUse">
      <stop stop-color="#021E3F"/>
      <stop offset="1" stop-color="#002A67"/>
    </linearGradient>
  </defs>
</svg>