<svg xmlns:xlink="http://www.w3.org/1999/xlink" xmlns="http://www.w3.org/2000/svg" fill="none" viewBox="0 0 99 30" width="100" height="40"><path fill="#7B849B" d="M54.208 12.704v-.032c0-.575-.101-1.098-.304-1.568a3.313 3.313 0 0 0-.848-1.232 3.638 3.638 0 0 0-1.344-.784c-.523-.192-1.12-.288-1.792-.288h-4.576V20h2.464v-3.36h1.872c.63 0 1.216-.08 1.76-.24a4.206 4.206 0 0 0 1.44-.751c.416-.331.741-.742.976-1.232.235-.491.352-1.062.352-1.713Zm-2.496.048c0 .48-.17.886-.512 1.216-.341.32-.821.48-1.44.48h-1.952v-3.424h1.904c.619 0 1.104.145 1.456.433.363.287.544.709.544 1.263v.032Zm15 7.248-2.737-4a3.814 3.814 0 0 0 1.729-1.248c.448-.575.672-1.317.672-2.224v-.032c0-1.162-.374-2.069-1.12-2.72-.737-.65-1.771-.976-3.105-.976h-5.12V20h2.465v-3.584h1.935l2.4 3.584h2.88Zm-2.833-7.344c0 .48-.165.864-.495 1.152-.32.289-.785.433-1.392.433h-2.496v-3.216h2.447c.608 0 1.083.133 1.425.4.34.266.511.666.511 1.2v.031ZM72.17 20V8.8h-2.464V20h2.464Zm13.639-1.808-1.568-1.584a6.21 6.21 0 0 1-1.328.96c-.437.235-.976.352-1.616.352-.48 0-.923-.09-1.328-.272a3.313 3.313 0 0 1-1.024-.767 3.648 3.648 0 0 1-.656-1.12c-.16-.427-.24-.88-.24-1.36v-.033a3.712 3.712 0 0 1 .912-2.464c.288-.32.63-.57 1.024-.752a3.176 3.176 0 0 1 1.312-.271c.565 0 1.072.111 1.52.335.459.225.907.534 1.344.929l1.568-1.809a6.593 6.593 0 0 0-.832-.704 5.099 5.099 0 0 0-.976-.544 5.944 5.944 0 0 0-1.184-.352 7.283 7.283 0 0 0-1.424-.128c-.864 0-1.653.155-2.368.464a5.407 5.407 0 0 0-1.84 1.248 5.664 5.664 0 0 0-1.2 1.84 5.78 5.78 0 0 0-.432 2.24v.032c0 .8.144 1.553.432 2.257a5.664 5.664 0 0 0 1.2 1.84c.512.512 1.12.917 1.824 1.215a5.797 5.797 0 0 0 2.288.448c.544 0 1.035-.047 1.472-.143a5.1 5.1 0 0 0 1.2-.384 5.527 5.527 0 0 0 1.024-.64 8.16 8.16 0 0 0 .896-.832ZM97.309 20v-2.192h-6.08v-2.351h5.28v-2.193h-5.28v-2.271h6V8.8h-8.448V20h8.528Z"></path><path stroke="#000000" stroke-opacity="0.1" stroke-width="0.5px" d="M36 0v30" fill="none"></path><path fill="#FEFEFE" fill-rule="evenodd" d="M13.984 1.713 2.334 8.36v13.293l11.65 6.647 11.65-6.647V8.359l-11.65-6.646Z" clip-rule="evenodd"></path><path fill="#002D72" fill-rule="evenodd" d="M13.984 1.713 2.334 8.36v13.293l11.65 6.647 11.65-6.647V8.359l-11.65-6.646Zm-4.6 5.747h9.168l1.106 4.619H8.32l1.064-4.62Zm2.642 7.896-1-2.58h5.937l-.979 2.58.284 2.882-2.284.01H11.72l.306-2.892Zm2.916 5.94v-.915l2.052-1.945v-3.07l2.685-1.726 3.063 2.278-4.169 7.178h-1.652l-1.979-1.8Zm-9.716-5.378 3.073-2.257 2.716 1.705v3.07l2.053 1.945v.915l-1.979 1.821H9.415l-4.19-7.199Z" clip-rule="evenodd"></path><path fill="url(&quot;#price-dark_svg__a&quot;)" fill-rule="evenodd" d="M18.573 23.096h-1.652l-1.979-1.8v-.915l2.053-1.945v-3.07l2.684-1.726 3.064 2.278-4.17 7.178Zm-4.59-21.383V7.46h4.57l1.105 4.619h-5.674v.697h2.979l-.979 2.58.284 2.882-2.284.01v10.05l11.65-6.646V8.359l-11.65-6.646Z" clip-rule="evenodd" style="mix-blend-mode: multiply;"></path><path fill="url(&quot;#price-dark_svg__b&quot;)" fill-rule="evenodd" d="m13.068 21.296-1.979 1.821H9.415l-4.19-7.199L8.3 13.661l2.716 1.705v3.07l2.053 1.945v.915Zm-1.348-3.048.306-2.892-1-2.58h2.958v-.697H8.32L9.384 7.46h4.6V1.713L2.334 8.36v13.293l11.65 6.647V18.25H11.72Z" clip-rule="evenodd" style="mix-blend-mode: multiply;"></path><defs><linearGradient id="price-dark_svg__a" x1="24.392" x2="24.392" y1="25.431" y2="4.516" gradientUnits="userSpaceOnUse"><stop stop-color="#002D72"></stop><stop offset="1" stop-color="#002D72" stop-opacity="0.01"></stop></linearGradient><linearGradient id="price-dark_svg__b" x1="12.741" x2="12.741" y1="25.431" y2="4.516" gradientUnits="userSpaceOnUse"><stop stop-color="#002D72" stop-opacity="0.01"></stop><stop offset="1" stop-color="#002D72"></stop></linearGradient><linearGradient id="price-dark_svg__a" x1="24.392" x2="24.392" y1="25.431" y2="4.516" gradientUnits="userSpaceOnUse"><stop stop-color="#002D72"></stop><stop offset="1" stop-color="#002D72" stop-opacity="0.01"></stop></linearGradient><linearGradient id="price-dark_svg__b" x1="12.741" x2="12.741" y1="25.431" y2="4.516" gradientUnits="userSpaceOnUse"><stop stop-color="#002D72" stop-opacity="0.01"></stop><stop offset="1" stop-color="#002D72"></stop></linearGradient></defs></svg>