<svg xmlns:xlink="http://www.w3.org/1999/xlink" xmlns="http://www.w3.org/2000/svg" fill="none" viewBox="0 0 99 30" width="100" height="40"><path fill="#A0A9BE" d="M54.208 12.704v-.032c0-.575-.101-1.098-.304-1.568a3.313 3.313 0 0 0-.848-1.232 3.638 3.638 0 0 0-1.344-.784c-.523-.192-1.12-.288-1.792-.288h-4.576V20h2.464v-3.36h1.872c.63 0 1.216-.08 1.76-.24a4.206 4.206 0 0 0 1.44-.751c.416-.331.741-.742.976-1.232.235-.491.352-1.062.352-1.713Zm-2.496.048c0 .48-.17.886-.512 1.216-.341.32-.821.48-1.44.48h-1.952v-3.424h1.904c.619 0 1.104.145 1.456.433.363.287.544.709.544 1.263v.032Zm15 7.248-2.737-4a3.814 3.814 0 0 0 1.729-1.248c.448-.575.672-1.317.672-2.224v-.032c0-1.162-.374-2.069-1.12-2.72-.737-.65-1.771-.976-3.105-.976h-5.12V20h2.465v-3.584h1.935l2.4 3.584h2.88Zm-2.833-7.344c0 .48-.165.864-.495 1.152-.32.289-.785.433-1.392.433h-2.496v-3.216h2.447c.608 0 1.083.133 1.425.4.34.266.511.666.511 1.2v.031ZM72.17 20V8.8h-2.464V20h2.464Zm13.639-1.808-1.568-1.584a6.21 6.21 0 0 1-1.328.96c-.437.235-.976.352-1.616.352-.48 0-.923-.09-1.328-.272a3.313 3.313 0 0 1-1.024-.767 3.648 3.648 0 0 1-.656-1.12c-.16-.427-.24-.88-.24-1.36v-.033a3.712 3.712 0 0 1 .912-2.464c.288-.32.63-.57 1.024-.752a3.176 3.176 0 0 1 1.312-.271c.565 0 1.072.111 1.52.335.459.225.907.534 1.344.929l1.568-1.809a6.593 6.593 0 0 0-.832-.704 5.099 5.099 0 0 0-.976-.544 5.944 5.944 0 0 0-1.184-.352 7.283 7.283 0 0 0-1.424-.128c-.864 0-1.653.155-2.368.464a5.407 5.407 0 0 0-1.84 1.248 5.664 5.664 0 0 0-1.2 1.84 5.78 5.78 0 0 0-.432 2.24v.032c0 .8.144 1.553.432 2.257a5.664 5.664 0 0 0 1.2 1.84c.512.512 1.12.917 1.824 1.215a5.797 5.797 0 0 0 2.288.448c.544 0 1.035-.047 1.472-.143a5.1 5.1 0 0 0 1.2-.384 5.527 5.527 0 0 0 1.024-.64 8.16 8.16 0 0 0 .896-.832ZM97.309 20v-2.192h-6.08v-2.351h5.28v-2.193h-5.28v-2.271h6V8.8h-8.448V20h8.528Z"></path><path stroke="#A0A9BE" stroke-width="0.5px" d="M36 0v30" fill="none"></path><path fill="#FEFEFE" fill-rule="evenodd" d="M2.333 8.103V21.61l11.637 6.754 11.634-6.754V8.103L13.97 1.35 2.333 8.103Zm1.025 12.914V8.698L13.97 2.536l10.613 6.162v12.32L13.97 27.176l-10.612-6.16Z" clip-rule="evenodd"></path><path fill="#FEFEFE" fill-rule="evenodd" d="M18.53 7.181H9.387l-1.06 4.686h11.305L18.53 7.181Zm-7.521 11.135v-3.113L8.3 13.472l-3.065 2.29 4.178 7.304h1.67l1.973-1.847v-.929l-2.047-1.974Z" clip-rule="evenodd"></path><path fill="#FEFEFE" fill-rule="evenodd" d="M16.94 12.574h-5.921l.998 2.618-.304 2.934h2.256l2.278-.01-.284-2.924.977-2.618Z" clip-rule="evenodd"></path><path fill="#FEFEFE" fill-rule="evenodd" d="m19.648 13.45-2.677 1.753v3.114l-2.046 1.974v.928l1.973 1.826h1.648l4.157-7.283-3.055-2.311Z" clip-rule="evenodd"></path></svg>